<svg xmlns="http://www.w3.org/2000/svg" width="22" height="16" viewBox="0 0 22 16"><defs><clipPath id="clip1"><path d="M3.72,1.8L18.3576,1.8A1.92,1.92 0,0 1,20.2776 3.72L20.2776,12.68A1.92,1.92 0,0 1,18.3576 14.6L3.72,14.6A1.92,1.92 0,0 1,1.8 12.68L1.8,3.72A1.92,1.92 0,0 1,3.72 1.8z M 0,0"/></clipPath></defs>  <path d="M3.72,1.8L18.3576,1.8A1.92,1.92 0,0 1,20.2776 3.72L20.2776,12.68A1.92,1.92 0,0 1,18.3576 14.6L3.72,14.6A1.92,1.92 0,0 1,1.8 12.68L1.8,3.72A1.92,1.92 0,0 1,3.72 1.8z" fill="#000000" stroke="#00000000" stroke-width="1" fill-rule="evenodd"/><g clip-path="url(#clip1)">  <path d="M1,-2h20v20h-20z" fill="#ffffff" stroke="#00000000" stroke-width="1" fill-rule="evenodd"/></g>  <path d="M3.32,1.4L18.7576,1.4A1.92,1.92 0,0 1,20.6776 3.32L20.6776,13.08A1.92,1.92 0,0 1,18.7576 15L3.32,15A1.92,1.92 0,0 1,1.4 13.08L1.4,3.32A1.92,1.92 0,0 1,3.32 1.4z" fill="#00000000" stroke="#024f7d" stroke-width="1" fill-rule="evenodd"/>  <path d="M2.64,1.8L10.4696,9.5744C10.7684,9.8707 11.25,9.8714 11.5496,9.576L19.4384,1.8" fill="#00000000" stroke="#024f7d" stroke-width="1" fill-rule="evenodd"/>  <path d="M1.8,13.8L9.7792,8.6M20.2776,13.8L12.2984,8.6" fill="#00000000" stroke="#024f7d" stroke-width="1" fill-rule="evenodd"/></svg>